<svg width="100" height="115" fill="none" xmlns="http://www.w3.org/2000/svg"><path d="m100 .562-9.11 102.143-40.951 11.362L9.1 102.721 0 .562h100z" fill="#264DE4"/><path d="m83.09 96.2 7.786-87.285H50v96.467l33.09-9.181z" fill="#2965F1"/><path d="m20.863 46.804 1.122 12.53H50v-12.53H20.863zM50 21.445H18.608l1.138 12.53H50v-12.53zM50 92.38V79.344l-.055.015-13.942-3.768-.892-9.993H22.544l1.754 19.673 25.645 7.125.057-.016z" fill="#EBEBEB"/><path d="M65.372 59.334 63.92 75.582l-13.962 3.772V92.39L75.62 85.27l.188-2.117 2.942-32.985.306-3.365 2.26-25.36h-31.36v12.53h17.64l-1.14 12.83h-16.5v12.53h15.415z" fill="#fff"/></svg>