<svg width="100" height="101" fill="none" xmlns="http://www.w3.org/2000/svg"><path d="M49.64.716c-25.387 0-23.801 11.02-23.801 11.02l.028 11.415h24.225v3.427H16.245S0 24.734 0 50.372s14.179 24.73 14.179 24.73h8.462V63.203s-.456-14.191 13.952-14.191H60.62s13.5.218 13.5-13.059V14.001S76.17.716 49.64.716zM36.281 8.393c2.41 0 4.358 1.95 4.358 4.362a4.356 4.356 0 0 1-4.358 4.362 4.356 4.356 0 0 1-4.359-4.362 4.356 4.356 0 0 1 4.359-4.362z" fill="url(#a)"/><path d="M50.36 100.285c25.387 0 23.802-11.019 23.802-11.019l-.029-11.415H49.908v-3.427h33.847S100 76.267 100 50.629 85.821 25.901 85.821 25.901H77.36v11.896s.457 14.192-13.952 14.192H39.38s-13.5-.218-13.5 13.059V87s-2.05 13.285 24.48 13.285zm13.359-7.676a4.356 4.356 0 0 1-4.359-4.362 4.356 4.356 0 0 1 4.359-4.362c2.41 0 4.358 1.95 4.358 4.362a4.356 4.356 0 0 1-4.358 4.362z" fill="url(#b)"/><defs><linearGradient id="a" x1="9.61" y1="9.672" x2="59.211" y2="58.734" gradientUnits="userSpaceOnUse"><stop stop-color="#387EB8"/><stop offset="1" stop-color="#366994"/></linearGradient><linearGradient id="b" x1="40.028" y1="41.205" x2="93.292" y2="91.511" gradientUnits="userSpaceOnUse"><stop stop-color="#FFE052"/><stop offset="1" stop-color="#FFC331"/></linearGradient></defs></svg>