<svg width="80" height="81" fill="none" xmlns="http://www.w3.org/2000/svg"><path d="M72.969.55H7.03C3.154.55 0 3.707 0 7.588v65.684c0 3.88 3.154 7.038 7.031 7.038H72.97c3.877 0 7.031-3.157 7.031-7.038V7.588C80 3.707 76.846.55 72.969.55zM7.03 5.242H72.97a2.347 2.347 0 0 1 2.344 2.346v11.729H4.686V7.587a2.347 2.347 0 0 1 2.344-2.345zM72.97 75.618H7.03a2.347 2.347 0 0 1-2.343-2.346V24.009h70.624v49.263a2.347 2.347 0 0 1-2.343 2.346z" fill="#ECCFF6"/><path d="M47.955 31.236a2.343 2.343 0 0 0-3.078 1.232L30.815 65.31a2.343 2.343 0 1 0 4.308 1.848l14.063-32.842a2.347 2.347 0 0 0-1.231-3.08zM27.767 38.964a2.342 2.342 0 0 0-3.294-.366L12.755 47.98a2.348 2.348 0 0 0 0 3.664l11.718 9.383c1.011.81 2.486.646 3.294-.366a2.347 2.347 0 0 0-.366-3.297l-9.43-7.552 9.43-7.552a2.347 2.347 0 0 0 .366-3.297zM67.245 47.981l-11.718-9.383a2.342 2.342 0 0 0-3.295.366 2.347 2.347 0 0 0 .367 3.297l9.43 7.552-9.43 7.552a2.347 2.347 0 0 0-.367 3.297 2.342 2.342 0 0 0 3.295.366l11.718-9.383a2.348 2.348 0 0 0 0-3.664zM11.875 14.625a2.345 2.345 0 0 0 2.344-2.346 2.345 2.345 0 1 0-2.344 2.346zM21.25 14.625a2.345 2.345 0 0 0 2.344-2.346 2.345 2.345 0 1 0-2.344 2.346zM30.625 14.625a2.345 2.345 0 0 0 2.344-2.346 2.345 2.345 0 1 0-2.344 2.346zM54.063 14.625h14.062a2.345 2.345 0 0 0 2.344-2.346 2.345 2.345 0 0 0-2.344-2.346H54.062a2.345 2.345 0 0 0-2.343 2.346 2.345 2.345 0 0 0 2.343 2.346z" fill="#ECCFF6"/></svg>