<svg width="49" height="44" fill="none" xmlns="http://www.w3.org/2000/svg"><path d="M39.502 43.881c-.38 0-.758-.112-1.082-.332l-12.248-8.316-6.57 4.731a1.929 1.929 0 0 1-2.99-1.074l-3.299-12.512-11.786-4.51a1.93 1.93 0 0 1-.024-3.597L46.318.423a1.928 1.928 0 0 1 2.643 2.163l-7.564 39.727a1.93 1.93 0 0 1-1.895 1.568zM27.247 31.3l10.91 7.407 5.886-30.911-21.258 20.474 4.41 2.995.052.035zm-9.082-1.647 1.46 5.54 3.148-2.267-4.121-2.798a1.925 1.925 0 0 1-.487-.475zM7.52 20.029l8.093 3.096a1.93 1.93 0 0 1 1.176 1.31l1.026 3.894c.047-.45.25-.872.58-1.19l20.257-19.51-31.132 12.4z" fill="#ECCFF6"/></svg>