<svg width="70" height="45" fill="none" xmlns="http://www.w3.org/2000/svg"><path d="M35.422 44.881c10.127 0 6.516-6.453 7.298-8.308-.012-1.386-.023-2.72.023-3.53.642.182 2.156.955 5.282 4.014 4.827 4.903 6.061 7.824 9.96 7.824h7.178c2.275 0 3.46-.948 4.052-1.744.571-.769 1.131-2.12.519-4.221-1.601-5.062-10.94-13.802-11.52-14.724.087-.17.227-.397.3-.514h-.006c1.843-2.452 8.878-13.062 9.913-17.308a.056.056 0 0 0 .006-.023c.56-1.938.047-3.195-.484-3.905-.8-1.063-2.07-1.6-3.789-1.6h-7.177c-2.404 0-4.227 1.218-5.148 3.44-1.543 3.95-5.877 12.07-9.127 14.945-.099-4.072-.032-7.181.02-9.492.106-4.507.444-8.893-4.202-8.893H27.238c-2.91 0-5.696 3.2-2.68 7 2.637 3.329.948 5.184 1.517 14.42-2.217-2.392-6.16-8.854-8.948-17.113-.782-2.234-1.966-4.304-5.3-4.304H4.649C1.74.845 0 2.442 0 5.117 0 11.124 13.21 44.88 35.422 44.88zM11.828 5.25c.633 0 .697 0 1.167 1.341 2.855 8.465 9.26 20.99 13.938 20.99 3.515 0 3.515-3.626 3.515-4.991l-.003-10.87c-.193-3.596-1.493-5.387-2.348-6.473l10.232.011c.005.05-.059 12.023.029 14.924 0 4.12 3.249 6.48 8.32 1.312 5.353-6.08 9.054-15.17 9.203-15.54.219-.528.408-.707 1.096-.707h7.208c-.004.009-.004.017-.006.026-.657 3.083-7.134 12.907-9.301 15.957-.035.047-.068.097-.1.147-.953 1.568-1.73 3.3.132 5.737h.002c.17.205.61.687 1.252 1.356 1.995 2.073 8.837 9.16 9.444 11.979-.403.065-.84.018-7.621.032-1.444 0-2.573-2.172-6.88-6.547-3.874-3.793-6.388-5.343-8.678-5.343-4.445 0-4.12 3.631-4.08 8.024.014 4.762-.015 3.256.017 3.555-.26.103-1.003.308-2.943.308-18.505 0-30.557-29.568-31.02-35.22.16-.014 2.368-.005 7.425-.008z" fill="#ECCFF6"/></svg>