<svg width="86" height="81" fill="none" xmlns="http://www.w3.org/2000/svg"><path d="M80.333.55H5c-2.757 0-5 2.245-5 5.004V55.6a5.008 5.008 0 0 0 5 5.004h26.25v10.01h-4.417a2.501 2.501 0 0 0 0 5.005h18.394c.404 2.824 2.829 5.003 5.75 5.003h18.379c3.204 0 5.81-2.619 5.81-5.838v-14.18h5.167c2.757 0 5-2.245 5-5.004V5.554a5.008 5.008 0 0 0-5-5.004zm0 5.004v40.037h-5.166v-9.175c0-3.22-2.607-5.839-5.811-5.839H50.978c-3.204 0-5.811 2.62-5.811 5.839v9.175H5V5.554h75.333zM70.167 40.586h-20v-4.17c0-.46.364-.834.81-.834h18.379c.447 0 .81.374.81.834v4.17zm-20 5.005h20v20.018h-20V45.59zM5 50.595h40.167V55.6H5v-5.005zm31.25 10.01h8.917v10.008H36.25V60.604zm33.106 15.013H50.978a.824.824 0 0 1-.811-.834v-4.17h20v4.17c0 .46-.364.834-.811.834zm5.81-20.018v-5.005h5.167V55.6h-5.166z" fill="#ECCFF6"/></svg>