<svg width="80" height="81" fill="none" xmlns="http://www.w3.org/2000/svg"><path d="M72.969.55H7.03C3.154.55 0 3.707 0 7.588V68.58c0 3.88 3.154 7.038 7.031 7.038h21.25v2.658a2.345 2.345 0 1 0 4.688 0V66.07c0-.838-.446-1.612-1.17-2.031a16.487 16.487 0 0 1-8.205-14.225c0-4.334 1.73-8.452 4.687-11.486v6.794c0 .739.348 1.434.938 1.877l9.375 7.038c.833.625 1.979.625 2.812 0l9.375-7.038c.59-.443.938-1.138.938-1.877v-6.794a16.487 16.487 0 0 1 4.687 11.486 16.487 16.487 0 0 1-8.205 14.225 2.347 2.347 0 0 0-1.17 2.03v12.208a2.345 2.345 0 1 0 4.688 0v-2.658h21.25c3.877 0 7.031-3.157 7.031-7.038V7.588C80 3.707 76.846.55 72.969.55zM7.03 5.242H72.97a2.347 2.347 0 0 1 2.344 2.346v11.729H4.686V7.587a2.347 2.347 0 0 1 2.344-2.345zM72.97 70.926h-21.25v-3.557c5.815-3.898 9.375-10.504 9.375-17.556 0-7.513-4.04-14.52-10.545-18.286-1.562-.904-3.518.228-3.518 2.03V43.95L40 49.227l-7.031-5.278V33.558c0-1.806-1.959-2.934-3.518-2.03-6.504 3.765-10.545 10.772-10.545 18.285 0 7.052 3.56 13.658 9.375 17.556v3.557H7.031a2.347 2.347 0 0 1-2.343-2.346V24.01h70.624V68.58a2.347 2.347 0 0 1-2.343 2.346z" fill="#ECCFF6"/><path d="M11.875 14.625a2.345 2.345 0 0 0 2.344-2.346 2.345 2.345 0 1 0-2.344 2.346zM21.25 14.625a2.345 2.345 0 0 0 2.344-2.346 2.345 2.345 0 1 0-2.344 2.346zM30.625 14.625a2.345 2.345 0 0 0 2.344-2.346 2.345 2.345 0 1 0-2.344 2.346zM54.063 14.625h14.062a2.345 2.345 0 0 0 2.344-2.346 2.345 2.345 0 0 0-2.344-2.346H54.062a2.345 2.345 0 0 0-2.343 2.346 2.345 2.345 0 0 0 2.343 2.346z" fill="#ECCFF6"/></svg>