<svg width="79" height="101" fill="none" xmlns="http://www.w3.org/2000/svg"><path d="M35.276.87H51.65v75.114c-8.387 1.588-14.562 2.213-21.242 2.213C10.41 78.175 0 69.233 0 52.058 0 35.51 11.042 24.772 28.154 24.772c2.655 0 4.678.209 7.122.836V.87zm.574 38.274c-1.918-.627-3.498-.836-5.521-.836-8.282 0-13.065 5.056-13.065 13.917 0 8.627 4.572 13.391 12.96 13.391 1.812 0 3.287-.102 5.626-.416V39.144z" fill="#2BA977"/><path d="M78.425 26.789v37.608c0 12.952-.97 19.18-3.814 24.55-2.655 5.162-6.153 8.418-13.381 12.013l-15.194-7.166c7.228-3.362 10.726-6.333 12.96-10.867 2.34-4.636 3.077-10.006 3.077-24.13V26.79h16.352zM60.423.87h16.373v16.652H60.423V.87z" fill="#2BA977"/></svg>