<svg width="103" height="103" fill="none" xmlns="http://www.w3.org/2000/svg"><path fill="#fff" fill-opacity=".8" d="M0 0h103v103H0z"/><path d="M50.458 91.877a1.98 1.98 0 0 1-.95-.249l-3.006-1.787c-.452-.249-.226-.34-.09-.385.61-.203.723-.249 1.356-.61.068-.046.158-.023.226.022l2.305 1.38c.09.045.204.045.272 0l9.019-5.226c.09-.045.135-.136.135-.249v-10.43c0-.113-.045-.203-.136-.249l-9.018-5.203c-.09-.046-.204-.046-.272 0l-9.019 5.203c-.09.046-.135.159-.135.25v10.43c0 .09.045.203.135.248l2.464 1.425c1.334.68 2.17-.113 2.17-.905V75.248c0-.136.113-.271.271-.271h1.153c.136 0 .271.113.271.271v10.294c0 1.788-.972 2.828-2.667 2.828-.52 0-.927 0-2.08-.565l-2.373-1.358a1.91 1.91 0 0 1-.95-1.651v-10.43c0-.679.362-1.312.95-1.652l9.02-5.226a2.016 2.016 0 0 1 1.898 0l9.019 5.226c.588.34.95.973.95 1.652v10.43a1.91 1.91 0 0 1-.95 1.651l-9.02 5.227a2.313 2.313 0 0 1-.948.203zm2.78-7.172c-3.956 0-4.77-1.81-4.77-3.348 0-.136.113-.272.272-.272h1.175c.136 0 .249.09.249.227.18 1.199.7 1.787 3.096 1.787 1.9 0 2.713-.43 2.713-1.448 0-.588-.226-1.018-3.187-1.312-2.464-.25-4.001-.792-4.001-2.76 0-1.833 1.537-2.919 4.114-2.919 2.893 0 4.317.996 4.498 3.167a.365.365 0 0 1-.068.204c-.045.045-.113.09-.18.09h-1.176a.265.265 0 0 1-.249-.203c-.271-1.244-.972-1.652-2.825-1.652-2.08 0-2.328.724-2.328 1.267 0 .656.293.86 3.096 1.222 2.78.362 4.092.882 4.092 2.828-.023 1.991-1.65 3.122-4.521 3.122z" fill="#539E43"/><path d="M22.474 51.085c0-.407-.226-.791-.588-.995l-9.584-5.52a1.392 1.392 0 0 0-.52-.159h-.09c-.181 0-.362.068-.52.158l-9.584 5.52a1.151 1.151 0 0 0-.588.996l.023 14.842c0 .204.113.407.293.498.181.113.407.113.566 0l5.696-3.258c.361-.204.587-.589.587-.996v-6.945c0-.408.227-.792.588-.996l2.419-1.403c.18-.113.384-.158.587-.158a.97.97 0 0 1 .566.158l2.418 1.403c.362.204.588.588.588.996v6.945c0 .407.226.792.588.996l5.696 3.258c.18.113.407.113.588 0a.562.562 0 0 0 .293-.498l-.022-14.842zM68.54 30.655a.622.622 0 0 0-.564 0 .59.59 0 0 0-.294.498V45.86a.435.435 0 0 1-.204.362.432.432 0 0 1-.406 0l-2.397-1.38a1.164 1.164 0 0 0-1.152 0l-9.585 5.543a1.152 1.152 0 0 0-.587.995v11.064c0 .407.226.792.587.995l9.585 5.543c.361.204.79.204 1.152 0l9.585-5.543c.361-.203.587-.588.587-.995v-27.58c0-.43-.226-.814-.587-1.017l-5.72-3.19zM67.66 58.8c0 .113-.046.204-.136.25l-3.278 1.9a.335.335 0 0 1-.294 0l-3.277-1.9c-.09-.046-.136-.16-.136-.25V55c0-.114.045-.204.136-.25l3.277-1.9a.335.335 0 0 1 .294 0l3.278 1.9c.09.046.135.159.135.25v3.8zM100.435 54.909a1.13 1.13 0 0 0 .565-.995V51.22c0-.407-.226-.792-.565-.995l-9.516-5.52a1.164 1.164 0 0 0-1.153 0l-9.584 5.542a1.151 1.151 0 0 0-.588.996v11.063c0 .407.226.792.588.996l9.516 5.43c.362.203.791.203 1.13 0l5.764-3.213a.562.562 0 0 0 .294-.498.562.562 0 0 0-.294-.498l-9.63-5.543a.59.59 0 0 1-.293-.497v-3.462c0-.203.113-.407.294-.498l3.006-1.719a.551.551 0 0 1 .588 0l3.006 1.72a.59.59 0 0 1 .294.497v2.715c0 .204.113.407.294.498.18.113.407.113.588 0l5.696-3.326z" fill="#333"/><path d="M90.195 54.388a.205.205 0 0 1 .226 0l1.831 1.064a.238.238 0 0 1 .113.204v2.126c0 .09-.045.159-.113.204l-1.83 1.063a.205.205 0 0 1-.227 0l-1.83-1.063a.238.238 0 0 1-.114-.204v-2.126c0-.091.045-.159.113-.204l1.831-1.064z" fill="#539E43"/><mask id="a" mask-type="alpha" maskUnits="userSpaceOnUse" x="27" y="44" width="22" height="25"><path d="M38.5 44.75a1.164 1.164 0 0 0-1.153 0l-9.516 5.498a1.13 1.13 0 0 0-.565.996v11.018c0 .407.226.792.565.995l9.516 5.498c.362.204.791.204 1.153 0l9.516-5.498a1.13 1.13 0 0 0 .566-.995V51.244c0-.407-.227-.792-.566-.996L38.5 44.751z" fill="#fff"/></mask><g mask="url(#a)"><path d="M38.5 44.75a1.164 1.164 0 0 0-1.153 0l-9.516 5.498a1.13 1.13 0 0 0-.565.996v11.018c0 .407.226.792.565.995l9.516 5.498c.362.204.791.204 1.153 0l9.516-5.498a1.13 1.13 0 0 0 .566-.995V51.244c0-.407-.227-.792-.566-.996L38.5 44.751z" fill="url(#b)"/><path d="m48.04 50.248-9.562-5.497a1.563 1.563 0 0 0-.294-.113L27.47 63.008c.09.114.203.204.316.272l9.561 5.498c.272.158.588.203.882.113l10.059-18.416c-.068-.09-.158-.159-.249-.227z" fill="url(#c)"/><path fill-rule="evenodd" clip-rule="evenodd" d="M48.062 63.257c.271-.158.475-.43.565-.724L38.139 44.615c-.272-.045-.565-.023-.814.136l-9.494 5.475 10.24 18.688c.136-.023.294-.068.43-.136l9.56-5.52z" fill="url(#d)"/><path fill-rule="evenodd" clip-rule="evenodd" d="m48.062 63.257-9.539 5.498a1.362 1.362 0 0 1-.43.136l.181.339 10.579-6.131v-.136l-.271-.452a1.051 1.051 0 0 1-.52.746z" fill="url(#e)"/><path fill-rule="evenodd" clip-rule="evenodd" d="m48.062 63.257-9.539 5.498a1.362 1.362 0 0 1-.43.136l.181.339 10.579-6.131v-.136l-.271-.452a1.051 1.051 0 0 1-.52.746z" fill="url(#f)"/></g><defs><linearGradient id="b" x1="41.801" y1="48.849" x2="31.356" y2="65.245" gradientUnits="userSpaceOnUse"><stop stop-color="#41873F"/><stop offset=".329" stop-color="#418B3D"/><stop offset=".635" stop-color="#419637"/><stop offset=".932" stop-color="#3FA92D"/><stop offset="1" stop-color="#3FAE2A"/></linearGradient><linearGradient id="c" x1="36.479" y1="58.043" x2="62.613" y2="43.858" gradientUnits="userSpaceOnUse"><stop offset=".138" stop-color="#41873F"/><stop offset=".403" stop-color="#54A044"/><stop offset=".714" stop-color="#66B848"/><stop offset=".908" stop-color="#6CC04A"/></linearGradient><linearGradient id="d" x1="26.919" y1="56.753" x2="48.939" y2="56.753" gradientUnits="userSpaceOnUse"><stop offset=".092" stop-color="#6CC04A"/><stop offset=".286" stop-color="#66B848"/><stop offset=".597" stop-color="#54A044"/><stop offset=".862" stop-color="#41873F"/></linearGradient><linearGradient id="e" x1="26.919" y1="65.889" x2="48.939" y2="65.889" gradientUnits="userSpaceOnUse"><stop offset=".092" stop-color="#6CC04A"/><stop offset=".286" stop-color="#66B848"/><stop offset=".597" stop-color="#54A044"/><stop offset=".862" stop-color="#41873F"/></linearGradient><linearGradient id="f" x1="52.147" y1="48.328" x2="46.559" y2="77.584" gradientUnits="userSpaceOnUse"><stop stop-color="#41873F"/><stop offset=".329" stop-color="#418B3D"/><stop offset=".635" stop-color="#419637"/><stop offset=".932" stop-color="#3FA92D"/><stop offset="1" stop-color="#3FAE2A"/></linearGradient></defs></svg>