<svg width="100" height="90" fill="none" xmlns="http://www.w3.org/2000/svg"><path d="M100 44.99c0-6.63-8.296-12.914-21.015-16.81 2.935-12.976 1.63-23.299-4.117-26.604C73.543.801 71.994.433 70.302.433v4.55c.937 0 1.691.184 2.323.53 2.772 1.592 3.975 7.651 3.037 15.444-.224 1.918-.59 3.938-1.04 5.999-3.994-.98-8.356-1.735-12.942-2.224-2.752-3.774-5.606-7.202-8.48-10.201 6.645-6.182 12.882-9.568 17.122-9.568V.413c-5.605 0-12.943 3.999-20.363 10.935C42.54 4.453 35.202.495 29.596.495v4.55c4.22 0 10.477 3.366 17.122 9.506a96.357 96.357 0 0 0-8.418 10.18c-4.607.49-8.969 1.245-12.964 2.245a61.598 61.598 0 0 1-1.06-5.916c-.958-7.794.225-13.853 2.976-15.465.612-.367 1.407-.53 2.344-.53V.515c-1.712 0-3.26.367-4.606 1.143-5.728 3.305-7.012 13.607-4.056 26.542C8.254 32.117 0 38.38 0 44.99c0 6.631 8.296 12.915 21.015 16.812-2.935 12.975-1.63 23.298 4.117 26.603 1.325.776 2.874 1.143 4.587 1.143 5.605 0 12.943-3.999 20.362-10.935 7.42 6.895 14.758 10.853 20.363 10.853 1.712 0 3.262-.367 4.607-1.142 5.728-3.305 7.012-13.608 4.056-26.543C91.745 57.885 100 51.601 100 44.991zM73.461 31.384c-.754 2.632-1.692 5.345-2.752 8.058a96.621 96.621 0 0 0-2.67-4.896 110.52 110.52 0 0 0-2.935-4.774c2.894.428 5.687.959 8.357 1.612zM64.126 53.11c-1.59 2.754-3.221 5.365-4.913 7.793-3.037.265-6.115.408-9.213.408-3.078 0-6.156-.143-9.172-.388a112.464 112.464 0 0 1-4.933-7.752 106.333 106.333 0 0 1-4.24-8.12 106.454 106.454 0 0 1 4.22-8.14c1.59-2.755 3.22-5.366 4.912-7.794 3.037-.265 6.115-.408 9.213-.408 3.078 0 6.156.143 9.172.388a112.488 112.488 0 0 1 4.933 7.752 106.316 106.316 0 0 1 4.24 8.12 114.308 114.308 0 0 1-4.22 8.14zm6.583-2.653a87.457 87.457 0 0 1 2.813 8.12 91.414 91.414 0 0 1-8.398 1.632 112.68 112.68 0 0 0 2.936-4.835 115.824 115.824 0 0 0 2.65-4.917zM50.041 72.227a84.091 84.091 0 0 1-5.667-6.529c1.835.082 3.71.143 5.606.143 1.916 0 3.811-.04 5.666-.143a79.613 79.613 0 0 1-5.605 6.529zM34.876 60.21a91.905 91.905 0 0 1-8.357-1.611c.754-2.632 1.691-5.346 2.751-8.06a96.578 96.578 0 0 0 2.67 4.897 135.1 135.1 0 0 0 2.936 4.774zm15.063-42.456a84.092 84.092 0 0 1 5.666 6.529A126.08 126.08 0 0 0 50 24.14c-1.916 0-3.812.041-5.666.143a79.595 79.595 0 0 1 5.605-6.529zM34.855 29.771a112.743 112.743 0 0 0-5.585 9.732 87.495 87.495 0 0 1-2.813-8.12 98.917 98.917 0 0 1 8.398-1.612zM16.41 55.314c-7.216-3.08-11.884-7.12-11.884-10.323 0-3.203 4.668-7.263 11.883-10.324 1.753-.754 3.67-1.428 5.647-2.06 1.162 3.999 2.69 8.16 4.586 12.425-1.875 4.243-3.384 8.385-4.525 12.363a61.876 61.876 0 0 1-5.707-2.081zm10.966 29.154c-2.773-1.592-3.975-7.65-3.038-15.444.225-1.918.592-3.938 1.04-5.998 3.995.979 8.357 1.734 12.943 2.223 2.752 3.775 5.606 7.202 8.48 10.201-6.645 6.182-12.882 9.569-17.122 9.569-.917-.02-1.692-.204-2.303-.551zm48.349-15.546c.958 7.793-.225 13.853-2.976 15.464-.612.368-1.407.53-2.344.53-4.22 0-10.477-3.366-17.122-9.507A96.347 96.347 0 0 0 61.7 65.23c4.607-.49 8.969-1.244 12.964-2.244.468 2.06.835 4.04 1.06 5.937zm7.847-13.608c-1.753.755-3.669 1.428-5.646 2.06-1.162-3.998-2.69-8.16-4.586-12.424 1.875-4.244 3.383-8.385 4.525-12.364a64.605 64.605 0 0 1 5.727 2.081c7.216 3.081 11.884 7.12 11.884 10.324-.02 3.203-4.688 7.263-11.904 10.323z" fill="#61DAFB"/><path d="M49.98 54.315c5.144 0 9.315-4.175 9.315-9.324 0-5.15-4.17-9.324-9.315-9.324s-9.315 4.174-9.315 9.324c0 5.15 4.17 9.324 9.315 9.324z" fill="#61DAFB"/></svg>