<svg height="511pt" viewBox="0 1 512 511" width="511pt" xmlns="http://www.w3.org/2000/svg"><linearGradient id="a" gradientUnits="userSpaceOnUse" x1="256" x2="256" y1=".5" y2="512.499"><stop offset="0" stop-color="#2af598"/><stop offset="1" stop-color="#009efd"/></linearGradient><path d="m408.082 275.855-227.71.965 86.292 85.567-28.164 28.402-134.781-133.644 133.644-134.782 28.403 28.164-85.567 86.293 227.715-.965zm103.914-20.44c.293 68.378-26.062 132.776-74.21 181.331-48.145 48.559-112.321 75.461-180.7 75.75-.371 0-.746.004-1.117.004-67.965 0-131.926-26.332-180.219-74.215C27.195 390.141.293 325.965.004 257.585-.29 189.208 26.066 124.81 74.214 76.25 122.36 27.695 186.532.793 254.915.5h1.117c67.965 0 131.926 26.328 180.219 74.215 48.555 48.144 75.457 112.32 75.746 180.7zm-40 .167c-.242-57.695-22.941-111.84-63.91-152.465C367.34 62.715 313.367 40.5 256.027 40.5h-.945c-119.102.508-215.586 97.816-215.078 216.918.242 57.691 22.941 111.84 63.91 152.465C144.66 450.28 198.633 472.5 255.973 472.5c.316 0 .629 0 .945-.004 119.102-.504 215.586-97.812 215.078-216.914zm0 0" fill="url(#a)"/></svg>