<svg width="44" height="45" fill="none" xmlns="http://www.w3.org/2000/svg"><path d="M31.857.842H12.142C5.447.842 0 6.294 0 12.995v19.733c0 6.701 5.447 12.153 12.142 12.153h19.715C38.553 44.881 44 39.43 44 32.728V12.995C44 6.294 38.553.842 31.857.842zm8.24 31.886c0 4.547-3.697 8.246-8.24 8.246H12.143c-4.542 0-8.238-3.7-8.238-8.246V12.995c0-4.547 3.696-8.246 8.238-8.246h19.715c4.543 0 8.24 3.7 8.24 8.246v19.733z" fill="#ECCFF6"/><path d="M22 11.852c-6.066 0-11 4.939-11 11.01 0 6.07 4.934 11.01 11 11.01s11-4.94 11-11.01c0-6.071-4.934-11.01-11-11.01zm0 18.228c-3.977 0-7.212-3.238-7.212-7.218 0-3.981 3.235-7.22 7.212-7.22s7.212 3.239 7.212 7.22c0 3.98-3.235 7.218-7.212 7.218zM33.646 7.208c-1.06 0-2.101.43-2.85 1.182a4.059 4.059 0 0 0-1.184 2.856c0 1.06.433 2.103 1.184 2.855a4.063 4.063 0 0 0 2.85 1.182 4.071 4.071 0 0 0 2.853-1.182 4.07 4.07 0 0 0 1.18-2.855c0-1.065-.428-2.107-1.18-2.856a4.05 4.05 0 0 0-2.853-1.182z" fill="#ECCFF6"/></svg>