<svg height="512" viewBox="0 0 74 74" width="512" xmlns="http://www.w3.org/2000/svg" data-name="line color"><path d="M71 35.1a3.428 3.428 0 0 1-3.12 3.66H21.42c-7.13 0-13.52-5.28-16.01-13.15l52.26.04v.95a5.4 5.4 0 0 0 5.4 5.41h6.99a13.791 13.791 0 0 1 .71 1.72A4.148 4.148 0 0 1 71 35.1z" fill="#e1e6e9"/><path d="M70.9 34.2h-7.83a5.4 5.4 0 0 1-5.4-5.41v-.95L6.23 27.8c-.3-.7-.58-1.44-.82-2.19l52.26.04v.95a5.4 5.4 0 0 0 5.4 5.41h6.99a13.791 13.791 0 0 1 .71 1.72 4.773 4.773 0 0 1 .13.47zM12.484 35.75a15.139 15.139 0 0 0 8.936 3.01h46.46a3.3 3.3 0 0 0 3.065-3.01z" fill="#d5d6db"/><path d="M67.88 39.26H21.42a15.643 15.643 0 0 1-9.231-3.106.5.5 0 0 1 .294-.9h58.461a.5.5 0 0 1 .494.577 3.8 3.8 0 0 1-3.558 3.429zm-53.719-3.01a14.387 14.387 0 0 0 7.259 2.01h46.46a2.68 2.68 0 0 0 2.433-2.01z" fill="#323c6b"/><path d="m43.069 25.6-7.991-8.405h-5.135l4.23 8.405zM31.98 38.758l-11.424 15.36 6.387 2.687 23.513-18.047z" fill="#fe7058"/><path d="M35.078 17.195h-2.759l7.99 8.405h2.76zM46.744 38.758 24.86 55.555l-4.093-1.722-.211.285 6.387 2.687 23.513-18.047z" fill="#ea6453"/><path d="M70.05 32.01h-6.98a5.4 5.4 0 0 1-5.4-5.41v-.95h2.97c3.91 0 7.48 2.46 9.41 6.36z" fill="#89c5cd"/><path d="M70.05 32.51h-6.98a5.911 5.911 0 0 1-5.9-5.91v-.95a.5.5 0 0 1 .5-.5h2.97a11.231 11.231 0 0 1 9.86 6.638.5.5 0 0 1-.448.722zm-11.88-6.36v.45a4.911 4.911 0 0 0 4.9 4.91h6.145a10.085 10.085 0 0 0-8.575-5.36z" fill="#323c6b"/><path d="M70.06 32.51h-.01a.5.5 0 1 1 .01 0z" fill="#323c6b"/><path d="M51.1 28.915a1.527 1.527 0 0 0-1.527 1.527v2.225h3.054v-2.225a1.526 1.526 0 0 0-1.527-1.527z" fill="#bbbbcd"/><path d="M52.622 33.167h-3.054a.5.5 0 0 1-.5-.5v-2.225a2.027 2.027 0 1 1 4.054 0v2.225a.5.5 0 0 1-.5.5zm-2.554-1h2.054v-1.725a1.027 1.027 0 1 0-2.054 0z" fill="#323c6b"/><path d="M44.436 28.915a1.527 1.527 0 0 0-1.527 1.527v2.225h3.054v-2.225a1.527 1.527 0 0 0-1.527-1.527z" fill="#bbbbcd"/><path d="M45.963 33.167h-3.054a.5.5 0 0 1-.5-.5v-2.225a2.027 2.027 0 0 1 4.054 0v2.225a.5.5 0 0 1-.5.5zm-2.554-1h2.054v-1.725a1.027 1.027 0 0 0-2.054 0z" fill="#323c6b"/><path d="M37.776 28.915a1.527 1.527 0 0 0-1.527 1.527v2.225H39.3v-2.225a1.526 1.526 0 0 0-1.524-1.527z" fill="#bbbbcd"/><path d="M39.3 33.167h-3.051a.5.5 0 0 1-.5-.5v-2.225a2.028 2.028 0 0 1 4.055 0v2.225a.5.5 0 0 1-.504.5zm-2.555-1H38.8v-1.725a1.028 1.028 0 0 0-2.055 0z" fill="#323c6b"/><path d="M31.117 28.915a1.526 1.526 0 0 0-1.527 1.527v2.225h3.054v-2.225a1.527 1.527 0 0 0-1.527-1.527z" fill="#bbbbcd"/><path d="M32.644 33.167H29.59a.5.5 0 0 1-.5-.5v-2.225a2.027 2.027 0 1 1 4.054 0v2.225a.5.5 0 0 1-.5.5zm-2.554-1h2.054v-1.725a1.027 1.027 0 1 0-2.054 0zM33.9 55.75a.5.5 0 0 1-.3-.9l.366-.282a.5.5 0 1 1 .609.793l-.366.281a.5.5 0 0 1-.309.108zM27.387 60.747a.51.51 0 0 1-.2-.039l-5.078-2.137a.5.5 0 0 1 .389-.922l4.81 2.024 3.835-2.944a.5.5 0 1 1 .61.792l-4.067 3.122a.5.5 0 0 1-.299.104z" fill="#323c6b"/><path d="M67.88 39.26H21.42c-7.307 0-13.932-5.425-16.486-13.5a.5.5 0 0 1 .476-.651l52.26.04a.5.5 0 0 1 .5.5v.95a4.911 4.911 0 0 0 4.9 4.91h6.99a.5.5 0 0 1 .448.279 13.956 13.956 0 0 1 .736 1.783A4.65 4.65 0 0 1 71.5 35.1a3.923 3.923 0 0 1-3.62 4.16zM6.1 26.11c2.563 7.3 8.644 12.15 15.316 12.15H67.88a2.932 2.932 0 0 0 2.62-3.16 3.639 3.639 0 0 0-.2-1.2 12.751 12.751 0 0 0-.552-1.385H63.07a5.911 5.911 0 0 1-5.9-5.91v-.451z" fill="#323c6b"/><path d="M15.1 25.562 7.2 17.2H3l2.409 8.367c2.908 1.482 6.184 1.273 9.691-.005z" fill="#fe7058"/><path d="M15.1 25.56a19.9 19.9 0 0 1-2.06.62l-8.46-8.99H7.2z" fill="#ea6453"/><g fill="#323c6b"><path d="M4.063 14.7h-.782a.5.5 0 1 1 0-1h.782a.5.5 0 0 1 0 1zM14.534 21.094a.5.5 0 0 1-.363-.157L8.274 14.7H6.656a.5.5 0 1 1 0-1H8.49a.5.5 0 0 1 .364.157l6.043 6.4a.5.5 0 0 1-.363.844zM43.068 26.1h-8.895a.5.5 0 0 1-.446-.276L29.5 17.419a.5.5 0 0 1 .446-.724h5.135a.5.5 0 0 1 .362.155l7.991 8.406a.5.5 0 0 1-.363.845zm-8.587-1H41.9l-7.037-7.4h-4.108zM26.943 57.305a.509.509 0 0 1-.194-.039l-6.388-2.687a.5.5 0 0 1-.207-.76l11.424-15.36a.5.5 0 0 1 .4-.2h18.477a.5.5 0 0 1 .3.9L27.248 57.2a.5.5 0 0 1-.305.105zm-5.6-3.4 5.531 2.327 22.108-16.974H32.23zM9.841 27.1A10.057 10.057 0 0 1 5.182 26a.5.5 0 0 1-.253-.307l-2.409-8.36A.5.5 0 0 1 3 16.7h4.2a.5.5 0 0 1 .364.157l7.9 8.367a.5.5 0 0 1-.193.813 15.917 15.917 0 0 1-5.43 1.063zm-4.012-1.888c2.367 1.141 5.116 1.184 8.375.13L6.981 17.7H3.664z"/></g><path d="M27.176 50.616a.65.65 0 0 1-.52-1.039l4.49-6.017a.65.65 0 1 1 1.041.777L27.7 50.354a.648.648 0 0 1-.524.262zM33.223 42.511a.649.649 0 0 1-.52-1.038l.374-.5a.65.65 0 1 1 1.041.777l-.374.5a.647.647 0 0 1-.521.261z" fill="#fff"/></svg>