<svg xmlns="http://www.w3.org/2000/svg" viewBox="0 0 512.001 512.001" style="enable-background:new 0 0 512.001 512.001" xml:space="preserve"><path style="fill:#c97523" d="M131.202 348.955v106.878H86.363V348.938"/><path style="fill:#a85613" d="M106.363 348.955v106.878h-20V348.938"/><ellipse style="fill:#8cc928" cx="108.782" cy="201.393" rx="108.782" ry="171.015"/><path style="fill:#82b20b" d="M108.782 372.411C48.698 372.411 0 295.84 0 201.396S48.698 30.381 108.782 30.381c-26.601 0-48.155 76.571-48.155 171.015s21.554 171.015 48.155 171.015z"/><path style="fill:#e9eaef" d="M468.698 263.882v217.739H183.04V263.882l143.634-139.333z"/><path style="fill:#9eb1b7" d="M398.802 187.006v-40.22h71.415v108.231"/><path style="fill:#879ba0" d="M398.802 187.006v-40.22h17.151v108.231"/><path style="fill:#85c10d" d="M354.204 435.996h143.137c8.096 0 14.66 6.563 14.66 14.66v30.967H339.544v-30.967c0-8.097 6.563-14.66 14.66-14.66zM14.66 435.996h166.026c8.096 0 14.66 6.563 14.66 14.66v30.967H0v-30.967c0-8.097 6.563-14.66 14.66-14.66z"/><path style="fill:#d2d4d8" d="M468.698 272.43v40.699L325.869 176.757 183.04 313.129V272.43l131.485-125.227 11.344-10.537 11.335 10.537z"/><path style="fill:#ea4756" d="m325.865 154.108-162.619 155.26-22.739-19.089 174.02-165.73 11.338-10.532 11.34 10.532 174.02 165.73-22.739 19.089z"/><path style="fill:#c97523" d="M217.982 318.486h94.204v163.132h-94.204z"/><path style="fill:#8e480e" d="M318.971 481.621h-13.556V325.262h-80.65v156.359h-13.556V318.484a6.777 6.777 0 0 1 6.778-6.778h94.207a6.777 6.777 0 0 1 6.778 6.778v163.137z"/><path style="fill:#a0d9f2" d="M339.549 318.486H446.83v94.204H339.549z"/><path style="fill:#c97523" d="M339.549 318.486H446.83v28.626H339.549z"/><path style="fill:#8e480e" d="M446.822 419.47H339.544a6.777 6.777 0 0 1-6.778-6.778v-94.206a6.777 6.777 0 0 1 6.778-6.778h107.279a6.777 6.777 0 0 1 6.778 6.778v94.206a6.78 6.78 0 0 1-6.779 6.778zm-100.5-13.556h93.723v-80.65h-93.723v80.65zM291.023 406.308h-13.674c-3.744 0-6.778-3.034-6.778-6.778s3.034-6.778 6.778-6.778h13.674a6.778 6.778 0 1 1 0 13.556z"/><circle style="fill:#413740" cx="325.868" cy="245.69" r="26.205"/><path style="fill:#8e480e" d="M339.549 340.332H446.83v13.556H339.549z"/><path style="fill:#ea4756" d="M325.869 278.679c-18.189 0-32.987-14.798-32.987-32.987s14.797-32.987 32.987-32.987 32.988 14.798 32.988 32.987c-.001 18.189-14.799 32.987-32.988 32.987zm0-52.418c-10.713 0-19.431 8.717-19.431 19.431s8.717 19.431 19.431 19.431 19.432-8.717 19.432-19.431-8.718-19.431-19.432-19.431z"/><path style="fill:#85c10d" d="M46.925 449.03a7.82 7.82 0 0 1-7.821-7.821v-19.787a7.82 7.82 0 1 1 15.642 0v19.787a7.82 7.82 0 0 1-7.821 7.821zM21.803 449.03a7.82 7.82 0 0 1-7.821-7.821v-19.787a7.82 7.82 0 1 1 15.642 0v19.787a7.82 7.82 0 0 1-7.821 7.821zM157.12 449.03a7.82 7.82 0 0 1-7.821-7.821v-19.787a7.82 7.82 0 1 1 15.642 0v19.787a7.82 7.82 0 0 1-7.821 7.821z"/></svg>